%TF.GenerationSoftware,KiCad,Pcbnew,(7.0.0-0)*%
%TF.CreationDate,2023-10-19T00:03:18+09:00*%
%TF.ProjectId,shuttle-adaptor,73687574-746c-4652-9d61-646170746f72,rev?*%
%TF.SameCoordinates,Original*%
%TF.FileFunction,Copper,L1,Top*%
%TF.FilePolarity,Positive*%
%FSLAX46Y46*%
G04 Gerber Fmt 4.6, Leading zero omitted, Abs format (unit mm)*
G04 Created by KiCad (PCBNEW (7.0.0-0)) date 2023-10-19 00:03:18*
%MOMM*%
%LPD*%
G01*
G04 APERTURE LIST*
%TA.AperFunction,ComponentPad*%
%ADD10R,1.000000X1.000000*%
%TD*%
%TA.AperFunction,ComponentPad*%
%ADD11O,1.000000X1.000000*%
%TD*%
%TA.AperFunction,ComponentPad*%
%ADD12R,1.700000X1.700000*%
%TD*%
%TA.AperFunction,ComponentPad*%
%ADD13O,1.700000X1.700000*%
%TD*%
%TA.AperFunction,Conductor*%
%ADD14C,1.000000*%
%TD*%
G04 APERTURE END LIST*
D10*
%TO.P,A1,11,XVDD*%
%TO.N,Net-(A1-XVDD)*%
X144999999Y-84999999D03*
D11*
%TO.P,A1,12,XVDDIO*%
%TO.N,Net-(A1-XVDDIO)*%
X144999999Y-83729999D03*
%TO.P,A1,13,GND*%
%TO.N,Net-(A1-GND)*%
X144999999Y-82459999D03*
%TO.P,A1,14,GPIO0*%
%TO.N,Net-(A1-GPIO0)*%
X144999999Y-81189999D03*
%TO.P,A1,15,GPIO1*%
%TO.N,Net-(A1-GPIO1)*%
X144999999Y-79919999D03*
%TO.P,A1,16,INT1*%
%TO.N,Net-(A1-INT1)*%
X144999999Y-78649999D03*
%TO.P,A1,17,INT2*%
%TO.N,Net-(A1-INT2)*%
X144999999Y-77379999D03*
D10*
%TO.P,A1,21,CSB1*%
%TO.N,Net-(A1-CSB1)*%
X127219999Y-84999999D03*
D11*
%TO.P,A1,22,SCK*%
%TO.N,Net-(A1-SCK)*%
X127219999Y-83729999D03*
%TO.P,A1,23,SDO2*%
%TO.N,Net-(A1-SDO2)*%
X127219999Y-82459999D03*
%TO.P,A1,24,SDI*%
%TO.N,Net-(A1-SDI)*%
X127219999Y-81189999D03*
%TO.P,A1,25,CSB2*%
%TO.N,Net-(A1-CSB2)*%
X127219999Y-79919999D03*
%TO.P,A1,26,PS*%
%TO.N,Net-(A1-PS)*%
X127219999Y-78649999D03*
%TO.P,A1,27,GPIO6*%
%TO.N,Net-(A1-GPIO6)*%
X127219999Y-77379999D03*
%TO.P,A1,28,GPIO7*%
%TO.N,Net-(A1-GPIO7)*%
X127219999Y-76109999D03*
%TO.P,A1,29,PROM_RW*%
%TO.N,Net-(A1-PROM_RW)*%
X127219999Y-74839999D03*
%TD*%
D12*
%TO.P,P1,1*%
%TO.N,Net-(A1-XVDD)*%
X126999999Y-68579999D03*
D13*
%TO.P,P1,2*%
%TO.N,Net-(A1-XVDDIO)*%
X129539999Y-68579999D03*
%TO.P,P1,3*%
%TO.N,Net-(A1-GND)*%
X132079999Y-68579999D03*
%TO.P,P1,4*%
%TO.N,Net-(A1-GPIO0)*%
X134619999Y-68579999D03*
%TO.P,P1,5*%
%TO.N,Net-(A1-GPIO1)*%
X137159999Y-68579999D03*
%TO.P,P1,6*%
%TO.N,Net-(A1-INT1)*%
X139699999Y-68579999D03*
%TO.P,P1,7*%
%TO.N,Net-(A1-INT2)*%
X142239999Y-68579999D03*
%TO.P,P1,8*%
%TO.N,Net-(A1-PROM_RW)*%
X144779999Y-68579999D03*
%TD*%
D12*
%TO.P,P2,1*%
%TO.N,Net-(A1-CSB1)*%
X126999999Y-91439999D03*
D13*
%TO.P,P2,2*%
%TO.N,Net-(A1-SCK)*%
X129539999Y-91439999D03*
%TO.P,P2,3*%
%TO.N,Net-(A1-SDO2)*%
X132079999Y-91439999D03*
%TO.P,P2,4*%
%TO.N,Net-(A1-SDI)*%
X134619999Y-91439999D03*
%TO.P,P2,5*%
%TO.N,Net-(A1-CSB2)*%
X137159999Y-91439999D03*
%TO.P,P2,6*%
%TO.N,Net-(A1-PS)*%
X139699999Y-91439999D03*
%TO.P,P2,7*%
%TO.N,Net-(A1-GPIO6)*%
X142239999Y-91439999D03*
%TO.P,P2,8*%
%TO.N,Net-(A1-GPIO7)*%
X144779999Y-91439999D03*
%TD*%
D14*
%TO.N,Net-(A1-GND)*%
X142960000Y-82460000D02*
X142750000Y-82250000D01*
X145000000Y-82460000D02*
X142960000Y-82460000D01*
X132080000Y-68580000D02*
X132080000Y-70580000D01*
X132250000Y-70750000D02*
X132080000Y-70580000D01*
X145000000Y-82460000D02*
X146500000Y-82460000D01*
%TD*%
%TA.AperFunction,Conductor*%
%TO.N,Net-(A1-GND)*%
G36*
X147438000Y-70016613D02*
G01*
X147483387Y-70062000D01*
X147500000Y-70124000D01*
X147500000Y-89876000D01*
X147483387Y-89938000D01*
X147438000Y-89983387D01*
X147376000Y-90000000D01*
X124624000Y-90000000D01*
X124562000Y-89983387D01*
X124516613Y-89938000D01*
X124500000Y-89876000D01*
X124500000Y-83730000D01*
X126214659Y-83730000D01*
X126215256Y-83736061D01*
X126215256Y-83736062D01*
X126233378Y-83920067D01*
X126233379Y-83920073D01*
X126233976Y-83926132D01*
X126235743Y-83931957D01*
X126235744Y-83931962D01*
X126244661Y-83961356D01*
X126250000Y-83997351D01*
X126250000Y-84305554D01*
X126242182Y-84348887D01*
X126228620Y-84385247D01*
X126228619Y-84385251D01*
X126225909Y-84392517D01*
X126225079Y-84400227D01*
X126225079Y-84400232D01*
X126219855Y-84448819D01*
X126219854Y-84448831D01*
X126219500Y-84452127D01*
X126219500Y-84455448D01*
X126219500Y-84455449D01*
X126219500Y-85544560D01*
X126219500Y-85544578D01*
X126219501Y-85547872D01*
X126219853Y-85551150D01*
X126219854Y-85551161D01*
X126225079Y-85599768D01*
X126225080Y-85599773D01*
X126225909Y-85607483D01*
X126228619Y-85614748D01*
X126228620Y-85614753D01*
X126242182Y-85651113D01*
X126250000Y-85694446D01*
X126250000Y-85750000D01*
X126257268Y-85750000D01*
X126281818Y-85761211D01*
X126311582Y-85789590D01*
X126362454Y-85857546D01*
X126477669Y-85943796D01*
X126612517Y-85994091D01*
X126672127Y-86000500D01*
X127767872Y-86000499D01*
X127827483Y-85994091D01*
X127962331Y-85943796D01*
X128077546Y-85857546D01*
X128082862Y-85850445D01*
X128120859Y-85799689D01*
X128164621Y-85763116D01*
X128220125Y-85750000D01*
X128233674Y-85750000D01*
X128250000Y-85750000D01*
X128250000Y-76250000D01*
X143750000Y-76250000D01*
X143750000Y-86000000D01*
X144442804Y-86000000D01*
X144449028Y-86000166D01*
X144452127Y-86000500D01*
X145547872Y-86000499D01*
X145550959Y-86000167D01*
X145557186Y-86000000D01*
X145983674Y-86000000D01*
X146000000Y-86000000D01*
X146000000Y-85557196D01*
X146000166Y-85550971D01*
X146000500Y-85547873D01*
X146000499Y-84452128D01*
X146000167Y-84449040D01*
X146000000Y-84442814D01*
X146000000Y-83790321D01*
X146000597Y-83778167D01*
X146004744Y-83736061D01*
X146005341Y-83730000D01*
X146000596Y-83681832D01*
X146000000Y-83669679D01*
X146000000Y-81250321D01*
X146000597Y-81238167D01*
X146004744Y-81196061D01*
X146005341Y-81190000D01*
X146000596Y-81141832D01*
X146000000Y-81129679D01*
X146000000Y-79980321D01*
X146000597Y-79968167D01*
X146004744Y-79926061D01*
X146005341Y-79920000D01*
X146000596Y-79871832D01*
X146000000Y-79859679D01*
X146000000Y-78710321D01*
X146000597Y-78698167D01*
X146004744Y-78656061D01*
X146005341Y-78650000D01*
X146000596Y-78601832D01*
X146000000Y-78589679D01*
X146000000Y-77440321D01*
X146000597Y-77428167D01*
X146004744Y-77386061D01*
X146005341Y-77380000D01*
X146000596Y-77331832D01*
X146000000Y-77319679D01*
X146000000Y-76266326D01*
X146000000Y-76250000D01*
X143750000Y-76250000D01*
X128250000Y-76250000D01*
X128250000Y-73750000D01*
X126250000Y-73750000D01*
X126250000Y-73766326D01*
X126250000Y-74572649D01*
X126244661Y-74608644D01*
X126235744Y-74638037D01*
X126235742Y-74638044D01*
X126233976Y-74643868D01*
X126233379Y-74649924D01*
X126233378Y-74649932D01*
X126215256Y-74833938D01*
X126214659Y-74840000D01*
X126215256Y-74846062D01*
X126233378Y-75030067D01*
X126233379Y-75030073D01*
X126233976Y-75036132D01*
X126235743Y-75041957D01*
X126235744Y-75041962D01*
X126244661Y-75071356D01*
X126250000Y-75107351D01*
X126250000Y-75842649D01*
X126244661Y-75878644D01*
X126235744Y-75908037D01*
X126235742Y-75908044D01*
X126233976Y-75913868D01*
X126233379Y-75919924D01*
X126233378Y-75919932D01*
X126215256Y-76103938D01*
X126214659Y-76110000D01*
X126215256Y-76116062D01*
X126233378Y-76300067D01*
X126233379Y-76300073D01*
X126233976Y-76306132D01*
X126235743Y-76311957D01*
X126235744Y-76311962D01*
X126244661Y-76341356D01*
X126250000Y-76377351D01*
X126250000Y-77112649D01*
X126244661Y-77148644D01*
X126235744Y-77178037D01*
X126235742Y-77178044D01*
X126233976Y-77183868D01*
X126233379Y-77189924D01*
X126233378Y-77189932D01*
X126220600Y-77319679D01*
X126214659Y-77380000D01*
X126215256Y-77386061D01*
X126215256Y-77386062D01*
X126233378Y-77570067D01*
X126233379Y-77570073D01*
X126233976Y-77576132D01*
X126235743Y-77581957D01*
X126235744Y-77581962D01*
X126244661Y-77611356D01*
X126250000Y-77647351D01*
X126250000Y-78382649D01*
X126244661Y-78418644D01*
X126235744Y-78448037D01*
X126235742Y-78448044D01*
X126233976Y-78453868D01*
X126233379Y-78459924D01*
X126233378Y-78459932D01*
X126220600Y-78589679D01*
X126214659Y-78650000D01*
X126215256Y-78656061D01*
X126215256Y-78656062D01*
X126233378Y-78840067D01*
X126233379Y-78840073D01*
X126233976Y-78846132D01*
X126235743Y-78851957D01*
X126235744Y-78851962D01*
X126244661Y-78881356D01*
X126250000Y-78917351D01*
X126250000Y-79652649D01*
X126244661Y-79688644D01*
X126235744Y-79718037D01*
X126235742Y-79718044D01*
X126233976Y-79723868D01*
X126233379Y-79729924D01*
X126233378Y-79729932D01*
X126220600Y-79859679D01*
X126214659Y-79920000D01*
X126215256Y-79926061D01*
X126215256Y-79926062D01*
X126233378Y-80110067D01*
X126233379Y-80110073D01*
X126233976Y-80116132D01*
X126235743Y-80121957D01*
X126235744Y-80121962D01*
X126244661Y-80151356D01*
X126250000Y-80187351D01*
X126250000Y-80922649D01*
X126244661Y-80958644D01*
X126235744Y-80988037D01*
X126235742Y-80988044D01*
X126233976Y-80993868D01*
X126233379Y-80999924D01*
X126233378Y-80999932D01*
X126220600Y-81129679D01*
X126214659Y-81190000D01*
X126215256Y-81196061D01*
X126215256Y-81196062D01*
X126233378Y-81380067D01*
X126233379Y-81380073D01*
X126233976Y-81386132D01*
X126235743Y-81391957D01*
X126235744Y-81391962D01*
X126244661Y-81421356D01*
X126250000Y-81457351D01*
X126250000Y-82192649D01*
X126244661Y-82228644D01*
X126235744Y-82258037D01*
X126235742Y-82258044D01*
X126233976Y-82263868D01*
X126233379Y-82269924D01*
X126233378Y-82269932D01*
X126215256Y-82453938D01*
X126214659Y-82460000D01*
X126215256Y-82466062D01*
X126233378Y-82650067D01*
X126233379Y-82650073D01*
X126233976Y-82656132D01*
X126235743Y-82661957D01*
X126235744Y-82661962D01*
X126244661Y-82691356D01*
X126250000Y-82727351D01*
X126250000Y-83462649D01*
X126244661Y-83498644D01*
X126235744Y-83528037D01*
X126235742Y-83528044D01*
X126233976Y-83533868D01*
X126233379Y-83539924D01*
X126233378Y-83539932D01*
X126220600Y-83669679D01*
X126214659Y-83730000D01*
X124500000Y-83730000D01*
X124500000Y-70124000D01*
X124516613Y-70062000D01*
X124562000Y-70016613D01*
X124624000Y-70000000D01*
X147376000Y-70000000D01*
X147438000Y-70016613D01*
G37*
%TD.AperFunction*%
%TD*%
M02*
