%TF.GenerationSoftware,KiCad,Pcbnew,(7.0.0-0)*%
%TF.CreationDate,2023-10-19T00:03:18+09:00*%
%TF.ProjectId,shuttle-adaptor,73687574-746c-4652-9d61-646170746f72,rev?*%
%TF.SameCoordinates,Original*%
%TF.FileFunction,Copper,L2,Bot*%
%TF.FilePolarity,Positive*%
%FSLAX46Y46*%
G04 Gerber Fmt 4.6, Leading zero omitted, Abs format (unit mm)*
G04 Created by KiCad (PCBNEW (7.0.0-0)) date 2023-10-19 00:03:18*
%MOMM*%
%LPD*%
G01*
G04 APERTURE LIST*
%TA.AperFunction,ComponentPad*%
%ADD10R,1.000000X1.000000*%
%TD*%
%TA.AperFunction,ComponentPad*%
%ADD11O,1.000000X1.000000*%
%TD*%
%TA.AperFunction,ComponentPad*%
%ADD12R,1.700000X1.700000*%
%TD*%
%TA.AperFunction,ComponentPad*%
%ADD13O,1.700000X1.700000*%
%TD*%
%TA.AperFunction,Conductor*%
%ADD14C,0.304800*%
%TD*%
%TA.AperFunction,Conductor*%
%ADD15C,1.000000*%
%TD*%
%TA.AperFunction,Conductor*%
%ADD16C,0.635000*%
%TD*%
G04 APERTURE END LIST*
D10*
%TO.P,A1,11,XVDD*%
%TO.N,Net-(A1-XVDD)*%
X144999999Y-84999999D03*
D11*
%TO.P,A1,12,XVDDIO*%
%TO.N,Net-(A1-XVDDIO)*%
X144999999Y-83729999D03*
%TO.P,A1,13,GND*%
%TO.N,Net-(A1-GND)*%
X144999999Y-82459999D03*
%TO.P,A1,14,GPIO0*%
%TO.N,Net-(A1-GPIO0)*%
X144999999Y-81189999D03*
%TO.P,A1,15,GPIO1*%
%TO.N,Net-(A1-GPIO1)*%
X144999999Y-79919999D03*
%TO.P,A1,16,INT1*%
%TO.N,Net-(A1-INT1)*%
X144999999Y-78649999D03*
%TO.P,A1,17,INT2*%
%TO.N,Net-(A1-INT2)*%
X144999999Y-77379999D03*
D10*
%TO.P,A1,21,CSB1*%
%TO.N,Net-(A1-CSB1)*%
X127219999Y-84999999D03*
D11*
%TO.P,A1,22,SCK*%
%TO.N,Net-(A1-SCK)*%
X127219999Y-83729999D03*
%TO.P,A1,23,SDO2*%
%TO.N,Net-(A1-SDO2)*%
X127219999Y-82459999D03*
%TO.P,A1,24,SDI*%
%TO.N,Net-(A1-SDI)*%
X127219999Y-81189999D03*
%TO.P,A1,25,CSB2*%
%TO.N,Net-(A1-CSB2)*%
X127219999Y-79919999D03*
%TO.P,A1,26,PS*%
%TO.N,Net-(A1-PS)*%
X127219999Y-78649999D03*
%TO.P,A1,27,GPIO6*%
%TO.N,Net-(A1-GPIO6)*%
X127219999Y-77379999D03*
%TO.P,A1,28,GPIO7*%
%TO.N,Net-(A1-GPIO7)*%
X127219999Y-76109999D03*
%TO.P,A1,29,PROM_RW*%
%TO.N,Net-(A1-PROM_RW)*%
X127219999Y-74839999D03*
%TD*%
D12*
%TO.P,P1,1*%
%TO.N,Net-(A1-XVDD)*%
X126999999Y-68579999D03*
D13*
%TO.P,P1,2*%
%TO.N,Net-(A1-XVDDIO)*%
X129539999Y-68579999D03*
%TO.P,P1,3*%
%TO.N,Net-(A1-GND)*%
X132079999Y-68579999D03*
%TO.P,P1,4*%
%TO.N,Net-(A1-GPIO0)*%
X134619999Y-68579999D03*
%TO.P,P1,5*%
%TO.N,Net-(A1-GPIO1)*%
X137159999Y-68579999D03*
%TO.P,P1,6*%
%TO.N,Net-(A1-INT1)*%
X139699999Y-68579999D03*
%TO.P,P1,7*%
%TO.N,Net-(A1-INT2)*%
X142239999Y-68579999D03*
%TO.P,P1,8*%
%TO.N,Net-(A1-PROM_RW)*%
X144779999Y-68579999D03*
%TD*%
D12*
%TO.P,P2,1*%
%TO.N,Net-(A1-CSB1)*%
X126999999Y-91439999D03*
D13*
%TO.P,P2,2*%
%TO.N,Net-(A1-SCK)*%
X129539999Y-91439999D03*
%TO.P,P2,3*%
%TO.N,Net-(A1-SDO2)*%
X132079999Y-91439999D03*
%TO.P,P2,4*%
%TO.N,Net-(A1-SDI)*%
X134619999Y-91439999D03*
%TO.P,P2,5*%
%TO.N,Net-(A1-CSB2)*%
X137159999Y-91439999D03*
%TO.P,P2,6*%
%TO.N,Net-(A1-PS)*%
X139699999Y-91439999D03*
%TO.P,P2,7*%
%TO.N,Net-(A1-GPIO6)*%
X142239999Y-91439999D03*
%TO.P,P2,8*%
%TO.N,Net-(A1-GPIO7)*%
X144779999Y-91439999D03*
%TD*%
D14*
%TO.N,Net-(A1-GPIO7)*%
X127220000Y-76110000D02*
X128110000Y-76110000D01*
X128110000Y-76110000D02*
X141250000Y-89250000D01*
X141250000Y-89250000D02*
X142500000Y-89250000D01*
X142500000Y-89250000D02*
X144690000Y-91440000D01*
X144690000Y-91440000D02*
X144780000Y-91440000D01*
%TO.N,Net-(A1-GPIO6)*%
X127220000Y-77380000D02*
X128130000Y-77380000D01*
X128130000Y-77380000D02*
X142190000Y-91440000D01*
X142190000Y-91440000D02*
X142240000Y-91440000D01*
D15*
%TO.N,Net-(A1-GND)*%
X145000000Y-82460000D02*
X146710000Y-82460000D01*
D16*
X146750000Y-82500000D02*
X146710000Y-82460000D01*
D15*
X132080000Y-68580000D02*
X132080000Y-70330000D01*
X132080000Y-70330000D02*
X144210000Y-82460000D01*
X144210000Y-82460000D02*
X145000000Y-82460000D01*
D14*
%TO.N,Net-(A1-PROM_RW)*%
X127090000Y-74840000D02*
X125000000Y-72750000D01*
X125500000Y-66750000D02*
X142950000Y-66750000D01*
X127220000Y-74840000D02*
X127090000Y-74840000D01*
X125000000Y-72750000D02*
X125000000Y-67250000D01*
X142950000Y-66750000D02*
X144780000Y-68580000D01*
X125000000Y-67250000D02*
X125500000Y-66750000D01*
%TO.N,Net-(A1-XVDDIO)*%
X129540000Y-68580000D02*
X129540000Y-69790000D01*
X129540000Y-69790000D02*
X143480000Y-83730000D01*
X143480000Y-83730000D02*
X145000000Y-83730000D01*
%TO.N,Net-(A1-XVDD)*%
X127000000Y-68580000D02*
X143420000Y-85000000D01*
X143420000Y-85000000D02*
X145000000Y-85000000D01*
%TO.N,Net-(A1-GPIO0)*%
X134620000Y-68580000D02*
X134620000Y-70870000D01*
X134620000Y-70870000D02*
X144940000Y-81190000D01*
X144940000Y-81190000D02*
X145000000Y-81190000D01*
%TO.N,Net-(A1-GPIO1)*%
X137160000Y-72160000D02*
X144920000Y-79920000D01*
X144920000Y-79920000D02*
X145000000Y-79920000D01*
X137160000Y-68580000D02*
X137160000Y-72160000D01*
%TO.N,Net-(A1-INT1)*%
X139700000Y-73450000D02*
X144900000Y-78650000D01*
X139700000Y-68580000D02*
X139700000Y-73450000D01*
X144900000Y-78650000D02*
X145000000Y-78650000D01*
%TO.N,Net-(A1-INT2)*%
X145000000Y-77380000D02*
X144880000Y-77380000D01*
X144880000Y-77380000D02*
X142240000Y-74740000D01*
X142240000Y-74740000D02*
X142240000Y-68580000D01*
%TO.N,Net-(A1-CSB1)*%
X127220000Y-91220000D02*
X127000000Y-91440000D01*
X127220000Y-85000000D02*
X127220000Y-91220000D01*
%TO.N,Net-(A1-SCK)*%
X129500000Y-85250000D02*
X129500000Y-91400000D01*
X127980000Y-83730000D02*
X129500000Y-85250000D01*
X129500000Y-91400000D02*
X129540000Y-91440000D01*
X127220000Y-83730000D02*
X127980000Y-83730000D01*
%TO.N,Net-(A1-SDO2)*%
X127960000Y-82460000D02*
X132080000Y-86580000D01*
X127220000Y-82460000D02*
X127960000Y-82460000D01*
X132080000Y-86580000D02*
X132080000Y-91440000D01*
%TO.N,Net-(A1-SDI)*%
X127940000Y-81190000D02*
X134620000Y-87870000D01*
X127220000Y-81190000D02*
X127940000Y-81190000D01*
X134620000Y-87870000D02*
X134620000Y-91440000D01*
%TO.N,Net-(A1-CSB2)*%
X137160000Y-89160000D02*
X137160000Y-91440000D01*
X127920000Y-79920000D02*
X137160000Y-89160000D01*
X127220000Y-79920000D02*
X127920000Y-79920000D01*
%TO.N,Net-(A1-PS)*%
X128025000Y-78650000D02*
X139700000Y-90325000D01*
X139700000Y-90325000D02*
X139700000Y-91440000D01*
X127220000Y-78650000D02*
X128025000Y-78650000D01*
%TD*%
%TA.AperFunction,Conductor*%
%TO.N,Net-(A1-GND)*%
G36*
X127492751Y-70009439D02*
G01*
X127532979Y-70036319D01*
X142900779Y-85404119D01*
X142908642Y-85412760D01*
X142908753Y-85412895D01*
X142912934Y-85419482D01*
X142964164Y-85467590D01*
X142966960Y-85470300D01*
X142987375Y-85490715D01*
X142990859Y-85493417D01*
X142990874Y-85493429D01*
X142999767Y-85501023D01*
X143027501Y-85527068D01*
X143027504Y-85527070D01*
X143033185Y-85532405D01*
X143051884Y-85542685D01*
X143068146Y-85553368D01*
X143078841Y-85561664D01*
X143078846Y-85561667D01*
X143085006Y-85566445D01*
X143097386Y-85571802D01*
X143127078Y-85584651D01*
X143137566Y-85589789D01*
X143177741Y-85611876D01*
X143185304Y-85613817D01*
X143185305Y-85613818D01*
X143198408Y-85617183D01*
X143216817Y-85623485D01*
X143229240Y-85628861D01*
X143236399Y-85631959D01*
X143281677Y-85639129D01*
X143293108Y-85641496D01*
X143337520Y-85652900D01*
X143358862Y-85652900D01*
X143378259Y-85654427D01*
X143399329Y-85657764D01*
X143444971Y-85653449D01*
X143456638Y-85652900D01*
X143626000Y-85652900D01*
X143688000Y-85669513D01*
X143733387Y-85714900D01*
X143750000Y-85776900D01*
X143750000Y-86000000D01*
X144442804Y-86000000D01*
X144449028Y-86000166D01*
X144452127Y-86000500D01*
X145547872Y-86000499D01*
X145550959Y-86000167D01*
X145557186Y-86000000D01*
X145983674Y-86000000D01*
X146000000Y-86000000D01*
X146000000Y-85557196D01*
X146000166Y-85550971D01*
X146000500Y-85547873D01*
X146000499Y-84452128D01*
X146000167Y-84449040D01*
X146000000Y-84442814D01*
X146000000Y-83790321D01*
X146000597Y-83778167D01*
X146004744Y-83736061D01*
X146005341Y-83730000D01*
X146000596Y-83681832D01*
X146000000Y-83669679D01*
X146000000Y-81250321D01*
X146000597Y-81238167D01*
X146004744Y-81196061D01*
X146005341Y-81190000D01*
X146000596Y-81141832D01*
X146000000Y-81129679D01*
X146000000Y-79980321D01*
X146000597Y-79968167D01*
X146004744Y-79926061D01*
X146005341Y-79920000D01*
X146000596Y-79871832D01*
X146000000Y-79859679D01*
X146000000Y-78710321D01*
X146000597Y-78698167D01*
X146004744Y-78656061D01*
X146005341Y-78650000D01*
X146000596Y-78601832D01*
X146000000Y-78589679D01*
X146000000Y-77440321D01*
X146000597Y-77428167D01*
X146004744Y-77386061D01*
X146005341Y-77380000D01*
X146000596Y-77331832D01*
X146000000Y-77319679D01*
X146000000Y-76266326D01*
X146000000Y-76250000D01*
X145983674Y-76250000D01*
X144724702Y-76250000D01*
X144677249Y-76240561D01*
X144637021Y-76213681D01*
X142929219Y-74505879D01*
X142902339Y-74465651D01*
X142892900Y-74418198D01*
X142892900Y-70124000D01*
X142909513Y-70062000D01*
X142954900Y-70016613D01*
X143016900Y-70000000D01*
X147376000Y-70000000D01*
X147438000Y-70016613D01*
X147483387Y-70062000D01*
X147500000Y-70124000D01*
X147500000Y-93376000D01*
X147483387Y-93438000D01*
X147438000Y-93483387D01*
X147376000Y-93500000D01*
X124624000Y-93500000D01*
X124562000Y-93483387D01*
X124516613Y-93438000D01*
X124500000Y-93376000D01*
X124500000Y-73472702D01*
X124513515Y-73416407D01*
X124551115Y-73372384D01*
X124604602Y-73350229D01*
X124662318Y-73354771D01*
X124711681Y-73385021D01*
X126188528Y-74861868D01*
X126212941Y-74896532D01*
X126224250Y-74937393D01*
X126233379Y-75030076D01*
X126233380Y-75030081D01*
X126233976Y-75036132D01*
X126235741Y-75041953D01*
X126235742Y-75041954D01*
X126244661Y-75071356D01*
X126250000Y-75107351D01*
X126250000Y-75842649D01*
X126244661Y-75878644D01*
X126235744Y-75908037D01*
X126235742Y-75908044D01*
X126233976Y-75913868D01*
X126233379Y-75919924D01*
X126233378Y-75919932D01*
X126215256Y-76103938D01*
X126214659Y-76110000D01*
X126215256Y-76116062D01*
X126233378Y-76300067D01*
X126233379Y-76300073D01*
X126233976Y-76306132D01*
X126235743Y-76311957D01*
X126235744Y-76311962D01*
X126244661Y-76341356D01*
X126250000Y-76377351D01*
X126250000Y-77112649D01*
X126244661Y-77148644D01*
X126235744Y-77178037D01*
X126235742Y-77178044D01*
X126233976Y-77183868D01*
X126233379Y-77189924D01*
X126233378Y-77189932D01*
X126220600Y-77319679D01*
X126214659Y-77380000D01*
X126215256Y-77386061D01*
X126215256Y-77386062D01*
X126233378Y-77570067D01*
X126233379Y-77570073D01*
X126233976Y-77576132D01*
X126235743Y-77581957D01*
X126235744Y-77581962D01*
X126244661Y-77611356D01*
X126250000Y-77647351D01*
X126250000Y-78382649D01*
X126244661Y-78418644D01*
X126235744Y-78448037D01*
X126235742Y-78448044D01*
X126233976Y-78453868D01*
X126233379Y-78459924D01*
X126233378Y-78459932D01*
X126220600Y-78589679D01*
X126214659Y-78650000D01*
X126215256Y-78656061D01*
X126215256Y-78656062D01*
X126233378Y-78840067D01*
X126233379Y-78840073D01*
X126233976Y-78846132D01*
X126235743Y-78851957D01*
X126235744Y-78851962D01*
X126244661Y-78881356D01*
X126250000Y-78917351D01*
X126250000Y-79652649D01*
X126244661Y-79688644D01*
X126235744Y-79718037D01*
X126235742Y-79718044D01*
X126233976Y-79723868D01*
X126233379Y-79729924D01*
X126233378Y-79729932D01*
X126220600Y-79859679D01*
X126214659Y-79920000D01*
X126215256Y-79926061D01*
X126215256Y-79926062D01*
X126233378Y-80110067D01*
X126233379Y-80110073D01*
X126233976Y-80116132D01*
X126235743Y-80121957D01*
X126235744Y-80121962D01*
X126244661Y-80151356D01*
X126250000Y-80187351D01*
X126250000Y-80922649D01*
X126244661Y-80958644D01*
X126235744Y-80988037D01*
X126235742Y-80988044D01*
X126233976Y-80993868D01*
X126233379Y-80999924D01*
X126233378Y-80999932D01*
X126220600Y-81129679D01*
X126214659Y-81190000D01*
X126215256Y-81196061D01*
X126215256Y-81196062D01*
X126233378Y-81380067D01*
X126233379Y-81380073D01*
X126233976Y-81386132D01*
X126235743Y-81391957D01*
X126235744Y-81391962D01*
X126244661Y-81421356D01*
X126250000Y-81457351D01*
X126250000Y-82192649D01*
X126244661Y-82228644D01*
X126235744Y-82258037D01*
X126235742Y-82258044D01*
X126233976Y-82263868D01*
X126233379Y-82269924D01*
X126233378Y-82269932D01*
X126215256Y-82453938D01*
X126214659Y-82460000D01*
X126215256Y-82466062D01*
X126233378Y-82650067D01*
X126233379Y-82650073D01*
X126233976Y-82656132D01*
X126235743Y-82661957D01*
X126235744Y-82661962D01*
X126244661Y-82691356D01*
X126250000Y-82727351D01*
X126250000Y-83462649D01*
X126244661Y-83498644D01*
X126235744Y-83528037D01*
X126235742Y-83528044D01*
X126233976Y-83533868D01*
X126233379Y-83539924D01*
X126233378Y-83539932D01*
X126220600Y-83669679D01*
X126214659Y-83730000D01*
X126215256Y-83736061D01*
X126215256Y-83736062D01*
X126233378Y-83920067D01*
X126233379Y-83920073D01*
X126233976Y-83926132D01*
X126235743Y-83931957D01*
X126235744Y-83931962D01*
X126244661Y-83961356D01*
X126250000Y-83997351D01*
X126250000Y-84305554D01*
X126242182Y-84348887D01*
X126228620Y-84385247D01*
X126228619Y-84385251D01*
X126225909Y-84392517D01*
X126225079Y-84400227D01*
X126225079Y-84400232D01*
X126219855Y-84448819D01*
X126219854Y-84448831D01*
X126219500Y-84452127D01*
X126219500Y-84455448D01*
X126219500Y-84455449D01*
X126219500Y-85544560D01*
X126219500Y-85544578D01*
X126219501Y-85547872D01*
X126219853Y-85551150D01*
X126219854Y-85551161D01*
X126225079Y-85599768D01*
X126225080Y-85599773D01*
X126225909Y-85607483D01*
X126228619Y-85614748D01*
X126228620Y-85614753D01*
X126242182Y-85651113D01*
X126250000Y-85694446D01*
X126250000Y-85750000D01*
X126257268Y-85750000D01*
X126281818Y-85761211D01*
X126311582Y-85789590D01*
X126362454Y-85857546D01*
X126477669Y-85943796D01*
X126486433Y-85947065D01*
X126487419Y-85947682D01*
X126493763Y-85951146D01*
X126493556Y-85951523D01*
X126528669Y-85973503D01*
X126557088Y-86014434D01*
X126567100Y-86063247D01*
X126567100Y-89876000D01*
X126550487Y-89938000D01*
X126505100Y-89983387D01*
X126443100Y-90000000D01*
X125750000Y-90000000D01*
X125750000Y-90016326D01*
X125750000Y-90247893D01*
X125743654Y-90287052D01*
X125725267Y-90322204D01*
X125711519Y-90340568D01*
X125711516Y-90340571D01*
X125706204Y-90347669D01*
X125703104Y-90355978D01*
X125703104Y-90355980D01*
X125658620Y-90475247D01*
X125658619Y-90475250D01*
X125655909Y-90482517D01*
X125655079Y-90490227D01*
X125655079Y-90490232D01*
X125649855Y-90538819D01*
X125649854Y-90538831D01*
X125649500Y-90542127D01*
X125649500Y-90545448D01*
X125649500Y-90545449D01*
X125649500Y-92334560D01*
X125649500Y-92334578D01*
X125649501Y-92337872D01*
X125649853Y-92341150D01*
X125649854Y-92341161D01*
X125655079Y-92389768D01*
X125655080Y-92389773D01*
X125655909Y-92397483D01*
X125658619Y-92404749D01*
X125658620Y-92404753D01*
X125692217Y-92494831D01*
X125706204Y-92532331D01*
X125711518Y-92539430D01*
X125711519Y-92539431D01*
X125725267Y-92557796D01*
X125743654Y-92592948D01*
X125750000Y-92632107D01*
X125750000Y-92750000D01*
X125928742Y-92750000D01*
X125972075Y-92757818D01*
X126042517Y-92784091D01*
X126102127Y-92790500D01*
X127897872Y-92790499D01*
X127957483Y-92784091D01*
X128027924Y-92757818D01*
X128071258Y-92750000D01*
X129194729Y-92750000D01*
X129226822Y-92754225D01*
X129304592Y-92775063D01*
X129540000Y-92795659D01*
X129775408Y-92775063D01*
X129853177Y-92754225D01*
X129885271Y-92750000D01*
X131734729Y-92750000D01*
X131766822Y-92754225D01*
X131844592Y-92775063D01*
X132080000Y-92795659D01*
X132315408Y-92775063D01*
X132393177Y-92754225D01*
X132425271Y-92750000D01*
X134274729Y-92750000D01*
X134306822Y-92754225D01*
X134384592Y-92775063D01*
X134620000Y-92795659D01*
X134855408Y-92775063D01*
X134933177Y-92754225D01*
X134965271Y-92750000D01*
X136814729Y-92750000D01*
X136846822Y-92754225D01*
X136924592Y-92775063D01*
X137160000Y-92795659D01*
X137395408Y-92775063D01*
X137473177Y-92754225D01*
X137505271Y-92750000D01*
X139354729Y-92750000D01*
X139386822Y-92754225D01*
X139464592Y-92775063D01*
X139700000Y-92795659D01*
X139935408Y-92775063D01*
X140013177Y-92754225D01*
X140045271Y-92750000D01*
X141894729Y-92750000D01*
X141926822Y-92754225D01*
X142004592Y-92775063D01*
X142240000Y-92795659D01*
X142475408Y-92775063D01*
X142553177Y-92754225D01*
X142585271Y-92750000D01*
X144434729Y-92750000D01*
X144466822Y-92754225D01*
X144544592Y-92775063D01*
X144780000Y-92795659D01*
X145015408Y-92775063D01*
X145093177Y-92754225D01*
X145125271Y-92750000D01*
X146233674Y-92750000D01*
X146250000Y-92750000D01*
X146250000Y-90000000D01*
X146233674Y-90000000D01*
X144224702Y-90000000D01*
X144177249Y-89990561D01*
X144137021Y-89963681D01*
X143019218Y-88845878D01*
X143011354Y-88837236D01*
X143011247Y-88837106D01*
X143007066Y-88830518D01*
X143001380Y-88825178D01*
X143001378Y-88825176D01*
X142955834Y-88782408D01*
X142953037Y-88779697D01*
X142935384Y-88762044D01*
X142932626Y-88759286D01*
X142929112Y-88756560D01*
X142920229Y-88748973D01*
X142892498Y-88722932D01*
X142892499Y-88722932D01*
X142886815Y-88717595D01*
X142868112Y-88707313D01*
X142851857Y-88696635D01*
X142834995Y-88683555D01*
X142792913Y-88665344D01*
X142782430Y-88660208D01*
X142749098Y-88641883D01*
X142749093Y-88641881D01*
X142742259Y-88638124D01*
X142734703Y-88636183D01*
X142734696Y-88636181D01*
X142721586Y-88632815D01*
X142703187Y-88626516D01*
X142683601Y-88618041D01*
X142675892Y-88616820D01*
X142638320Y-88610869D01*
X142626888Y-88608502D01*
X142582480Y-88597100D01*
X142574678Y-88597100D01*
X142561138Y-88597100D01*
X142541741Y-88595573D01*
X142528380Y-88593457D01*
X142520671Y-88592236D01*
X142512905Y-88592970D01*
X142512903Y-88592970D01*
X142475033Y-88596550D01*
X142463364Y-88597100D01*
X141571802Y-88597100D01*
X141524349Y-88587661D01*
X141484121Y-88560781D01*
X128629218Y-75705878D01*
X128621354Y-75697236D01*
X128621247Y-75697106D01*
X128617066Y-75690518D01*
X128611380Y-75685178D01*
X128611378Y-75685176D01*
X128565834Y-75642408D01*
X128563037Y-75639697D01*
X128545384Y-75622044D01*
X128545383Y-75622043D01*
X128542626Y-75619286D01*
X128539112Y-75616560D01*
X128530229Y-75608973D01*
X128502498Y-75582932D01*
X128502499Y-75582932D01*
X128496815Y-75577595D01*
X128478112Y-75567313D01*
X128461857Y-75556635D01*
X128444995Y-75543555D01*
X128402913Y-75525344D01*
X128392430Y-75520208D01*
X128359098Y-75501883D01*
X128359093Y-75501881D01*
X128352259Y-75498124D01*
X128344704Y-75496184D01*
X128344699Y-75496182D01*
X128343162Y-75495788D01*
X128341278Y-75494828D01*
X128337449Y-75493312D01*
X128337592Y-75492950D01*
X128294959Y-75471227D01*
X128261801Y-75428481D01*
X128250000Y-75375684D01*
X128250000Y-73766326D01*
X128250000Y-73750000D01*
X128233674Y-73750000D01*
X126974702Y-73750000D01*
X126927249Y-73740561D01*
X126887021Y-73713681D01*
X125689219Y-72515879D01*
X125662339Y-72475651D01*
X125652900Y-72428198D01*
X125652900Y-70124000D01*
X125669513Y-70062000D01*
X125714900Y-70016613D01*
X125776900Y-70000000D01*
X127445298Y-70000000D01*
X127492751Y-70009439D01*
G37*
%TD.AperFunction*%
%TA.AperFunction,Conductor*%
G36*
X133905100Y-70016613D02*
G01*
X133950487Y-70062000D01*
X133967100Y-70124000D01*
X133967100Y-70788617D01*
X133966550Y-70800287D01*
X133966534Y-70800452D01*
X133964832Y-70808069D01*
X133965077Y-70815867D01*
X133965077Y-70815868D01*
X133967039Y-70878304D01*
X133967100Y-70882199D01*
X133967100Y-70911075D01*
X133967588Y-70914942D01*
X133967589Y-70914952D01*
X133967658Y-70915497D01*
X133968572Y-70927121D01*
X133969767Y-70965152D01*
X133969768Y-70965159D01*
X133970013Y-70972948D01*
X133975967Y-70993445D01*
X133979910Y-71012483D01*
X133981608Y-71025925D01*
X133981609Y-71025929D01*
X133982586Y-71033660D01*
X133985454Y-71040905D01*
X133985456Y-71040911D01*
X133999462Y-71076287D01*
X134003245Y-71087336D01*
X134016035Y-71131359D01*
X134020006Y-71138075D01*
X134020008Y-71138078D01*
X134026899Y-71149731D01*
X134035455Y-71167194D01*
X134043312Y-71187037D01*
X134047894Y-71193343D01*
X134047897Y-71193349D01*
X134070255Y-71224122D01*
X134076668Y-71233885D01*
X134096034Y-71266630D01*
X134096037Y-71266635D01*
X134100008Y-71273348D01*
X134105522Y-71278862D01*
X134105523Y-71278863D01*
X134115096Y-71288436D01*
X134127728Y-71303225D01*
X134140274Y-71320493D01*
X134175601Y-71349718D01*
X134184241Y-71357581D01*
X143713681Y-80887021D01*
X143740561Y-80927249D01*
X143750000Y-80974702D01*
X143750000Y-82777298D01*
X143736485Y-82833593D01*
X143698885Y-82877616D01*
X143645398Y-82899771D01*
X143587682Y-82895229D01*
X143538319Y-82864979D01*
X130885021Y-70211681D01*
X130854771Y-70162318D01*
X130850229Y-70104602D01*
X130872384Y-70051115D01*
X130916407Y-70013515D01*
X130972702Y-70000000D01*
X133843100Y-70000000D01*
X133905100Y-70016613D01*
G37*
%TD.AperFunction*%
%TD*%
M02*
